<svg id="Layer_1" xmlns="http://www.w3.org/2000/svg" xmlns:xlink="http://www.w3.org/1999/xlink" viewBox="0 0 1280 800.6"><style>.st0{fill:#0af}.st1{clip-path:url(#SVGID_2_)}.st2{fill:#09f}</style><title>homepage_background_cropped</title><path class="st0" d="M0-.6h1280v801.2H0z"/><defs><path id="SVGID_1_" d="M0 0h1280v800H0z"/></defs><clipPath id="SVGID_2_"><use xlink:href="#SVGID_1_" overflow="visible"/></clipPath><g class="st1"><path class="st2" d="M284.3 1261.4l181.2-422.8c-118-106.8-186.1-257.9-186.1-420 0-258.9 174.5-477.3 411.9-545-95.7-141.2-257.4-234-440.9-234-294 0-532.3 238.4-532.3 532.4 0 190.3 100.1 356.8 250 451.4 16.3 10.3 12.7 39.7 8.7 48.7L-290 1295c-26 60.6 6.7 110 72.5 110H274c-13.4-45.4-10.3-95.3 10.3-143.6"/><path class="st2" d="M1336.4 1317l-213.5-498.3c-3.2-7.3-6.1-30.7 7-39 119.9-75.7 200-208.9 200-361.1 0-235.2-190.7-425.9-425.9-425.9s-425.9 190.8-425.9 426c0 152.2 80.1 285.4 200 361.1 13.1 8.2 10.2 31.7 7 39l-213.5 498.3c-20.8 48.4 5.4 88 58 88h748.7c52.7 0 78.8-39.6 58.1-88.1"/></g></svg>
